<svg xmlns="http://www.w3.org/2000/svg" width="12.78" height="13.38"><path d="M1072.67 6171.54a3.4 3.4 0 1 0 3.27 3.4 3.348 3.348 0 0 0-3.27-3.4Zm0 5.61a2.207 2.207 0 1 1 2.12-2.21 2.169 2.169 0 0 1-2.12 2.21Zm2.62-8.78c-1.17-.06-4.08-.06-5.25 0a3.763 3.763 0 0 0-2.68 1.07c-1.23 1.27-1.07 2.98-1.07 5.5 0 2.58-.14 4.25 1.07 5.51 1.23 1.27 2.91 1.11 5.31 1.11 2.45 0 3.3 0 4.17-.35a3.634 3.634 0 0 0 2.16-3.54c.06-1.22.05-4.24 0-5.46-.1-2.32-1.31-3.73-3.71-3.84Zm1.86 11.23c-.8.84-1.92.76-4.5.76-2.66 0-3.72.04-4.5-.76-.9-.93-.73-2.42-.73-4.67 0-3.04-.31-5.24 2.64-5.4.68-.02.88-.03 2.58-.03l.03.02c2.83 0 5.05-.31 5.18 2.75.03.7.04.9.04 2.67 0 2.73.05 3.84-.74 4.66Zm-1.08-8.98a.79.79 0 0 0 0 1.58.791.791 0 0 0 0-1.58Z" style="fill-rule:evenodd" transform="translate(-1066.28 -6168.34)"/></svg>