<svg xmlns="http://www.w3.org/2000/svg" width="12.78" height="13.38" viewBox="0 0 12.78 13.38">
  <defs>
    <style>
      .cls-1 {
        fill-rule: evenodd;
      }
    </style>
  </defs>
  <path id="Shape" class="cls-1" d="M1072.67,6171.54a3.4,3.4,0,1,0,3.27,3.4A3.348,3.348,0,0,0,1072.67,6171.54Zm0,5.61a2.207,2.207,0,1,1,2.12-2.21A2.169,2.169,0,0,1,1072.67,6177.15Zm2.62-8.78c-1.17-.06-4.08-0.06-5.25,0a3.763,3.763,0,0,0-2.68,1.07c-1.23,1.27-1.07,2.98-1.07,5.5,0,2.58-.14,4.25,1.07,5.51,1.23,1.27,2.91,1.11,5.31,1.11,2.45,0,3.3,0,4.17-.35a3.634,3.634,0,0,0,2.16-3.54c0.06-1.22.05-4.24,0-5.46C1078.9,6169.89,1077.69,6168.48,1075.29,6168.37Zm1.86,11.23c-0.8.84-1.92,0.76-4.5,0.76-2.66,0-3.72.04-4.5-.76-0.9-.93-0.73-2.42-0.73-4.67,0-3.04-.31-5.24,2.64-5.4,0.68-.02.88-0.03,2.58-0.03l0.03,0.02c2.83,0,5.05-.31,5.18,2.75,0.03,0.7.04,0.9,0.04,2.67C1077.89,6177.67,1077.94,6178.78,1077.15,6179.6Zm-1.08-8.98a0.79,0.79,0,0,0,0,1.58A0.791,0.791,0,0,0,1076.07,6170.62Z" transform="translate(-1066.28 -6168.34)"/>
</svg>
